<svg width="16" height="16" viewBox="0 0 16 16" fill="none" xmlns="http://www.w3.org/2000/svg">
<path d="M2.23438 3.36328V4.26562H1.72656V10.4414H2.23438V11.3398H0.5V3.36328H2.23438Z" fill="white"/>
<path d="M3.91797 6.66016V10H2.69922V5.77344H3.84375L3.91797 6.66016ZM3.76172 7.73828L3.45312 7.74609C3.45312 7.44922 3.48828 7.17708 3.55859 6.92969C3.63151 6.67969 3.73698 6.46224 3.875 6.27734C4.01302 6.09245 4.18359 5.94922 4.38672 5.84766C4.59245 5.74609 4.82943 5.69531 5.09766 5.69531C5.28516 5.69531 5.45573 5.72396 5.60938 5.78125C5.76302 5.83594 5.89453 5.92318 6.00391 6.04297C6.11589 6.16016 6.20182 6.3138 6.26172 6.50391C6.32161 6.69141 6.35156 6.91667 6.35156 7.17969V10H5.13281V7.32812C5.13281 7.14062 5.10938 6.9987 5.0625 6.90234C5.01823 6.80339 4.95312 6.73568 4.86719 6.69922C4.78125 6.66276 4.67839 6.64453 4.55859 6.64453C4.42839 6.64453 4.3125 6.67318 4.21094 6.73047C4.11198 6.78516 4.02865 6.86198 3.96094 6.96094C3.89323 7.0599 3.84245 7.17578 3.80859 7.30859C3.77734 7.44141 3.76172 7.58464 3.76172 7.73828ZM6.22656 7.67578L5.83984 7.70703C5.83984 7.42057 5.8737 7.15495 5.94141 6.91016C6.00911 6.66536 6.11068 6.45312 6.24609 6.27344C6.38151 6.09115 6.54948 5.94922 6.75 5.84766C6.95312 5.74609 7.1888 5.69531 7.45703 5.69531C7.65495 5.69531 7.83464 5.72396 7.99609 5.78125C8.16016 5.83854 8.30078 5.93099 8.41797 6.05859C8.53776 6.1862 8.63021 6.35417 8.69531 6.5625C8.76042 6.76823 8.79297 7.02083 8.79297 7.32031V10H7.56641V7.32031C7.56641 7.13542 7.54297 6.99479 7.49609 6.89844C7.45182 6.80208 7.38672 6.73568 7.30078 6.69922C7.21745 6.66276 7.11719 6.64453 7 6.64453C6.86979 6.64453 6.75651 6.67188 6.66016 6.72656C6.5638 6.77865 6.48307 6.85156 6.41797 6.94531C6.35286 7.03646 6.30469 7.14453 6.27344 7.26953C6.24219 7.39453 6.22656 7.52995 6.22656 7.67578Z" fill="white"/>
<path d="M9.43359 7.92969V7.84766C9.43359 7.53776 9.47786 7.2526 9.56641 6.99219C9.65495 6.72917 9.78516 6.5013 9.95703 6.30859C10.1289 6.11589 10.3398 5.96615 10.5898 5.85938C10.8398 5.75 11.1263 5.69531 11.4492 5.69531C11.7773 5.69531 12.0664 5.75 12.3164 5.85938C12.569 5.96615 12.7812 6.11589 12.9531 6.30859C13.125 6.5013 13.2552 6.72917 13.3438 6.99219C13.4323 7.2526 13.4766 7.53776 13.4766 7.84766V7.92969C13.4766 8.23698 13.4323 8.52214 13.3438 8.78516C13.2552 9.04557 13.125 9.27344 12.9531 9.46875C12.7812 9.66146 12.5703 9.8112 12.3203 9.91797C12.0703 10.0247 11.7826 10.0781 11.457 10.0781C11.1341 10.0781 10.8464 10.0247 10.5938 9.91797C10.3411 9.8112 10.1289 9.66146 9.95703 9.46875C9.78516 9.27344 9.65495 9.04557 9.56641 8.78516C9.47786 8.52214 9.43359 8.23698 9.43359 7.92969ZM10.6562 7.84766V7.92969C10.6562 8.09635 10.6693 8.2526 10.6953 8.39844C10.724 8.54427 10.7695 8.67188 10.832 8.78125C10.8945 8.89062 10.9766 8.97656 11.0781 9.03906C11.1823 9.09896 11.3086 9.12891 11.457 9.12891C11.6055 9.12891 11.7305 9.09896 11.832 9.03906C11.9336 8.97656 12.0156 8.89062 12.0781 8.78125C12.1406 8.67188 12.1849 8.54427 12.2109 8.39844C12.2396 8.2526 12.2539 8.09635 12.2539 7.92969V7.84766C12.2539 7.68359 12.2396 7.52995 12.2109 7.38672C12.1849 7.24089 12.1406 7.11198 12.0781 7C12.0156 6.88802 11.9323 6.80078 11.8281 6.73828C11.7266 6.67578 11.6003 6.64453 11.4492 6.64453C11.3034 6.64453 11.1797 6.67578 11.0781 6.73828C10.9766 6.80078 10.8945 6.88802 10.832 7C10.7695 7.11198 10.724 7.24089 10.6953 7.38672C10.6693 7.52995 10.6562 7.68359 10.6562 7.84766Z" fill="white"/>
<path d="M13.7617 4.26562V3.36328H15.5V11.3398H13.7617V10.4414H14.2773V4.26562H13.7617Z" fill="white"/>
</svg>
